<?xml version="1.0" encoding="utf-8"?>
<!-- Generator: Adobe Illustrator 21.0.2, SVG Export Plug-In . SVG Version: 6.00 Build 0)  -->
<svg version="1.1" id="Layer_1" xmlns="http://www.w3.org/2000/svg" xmlns:xlink="http://www.w3.org/1999/xlink" x="0px" y="0px"
	 viewBox="0 0 666.3 705.8" style="enable-background:new 0 0 666.3 705.8;" xml:space="preserve">
<g>
	<path d="M367,705.8c-8.6,0-17.3,0.1-25.9,0c-15-0.2-30.1-0.8-45-2.5c-23.1-2.6-45.7-7.4-67.4-16.3c-8.7-3.6-17.1-7.9-25-13.2
		c-17.7-11.9-31-27.5-39.5-47.2c-5.1-11.8-9.3-23.8-13.4-35.9c-3-8.8-5.8-17.6-8.7-26.4c-1.4-4.1-2.9-8.1-4.6-12.1
		c-4.2-9.9-10.6-18.1-19-24.9c-10.7-8.6-21.3-17.4-31.8-26.3c-9.7-8.3-18.9-17.3-27.6-26.6c-14.1-15.1-25.4-32.1-34.3-50.7
		c-10.2-21.2-17.6-43.2-21.4-66.4c-3.2-19-4.3-38.2-2.5-57.4c6.9-76,36-142.4,87.1-198.9c27.2-30.1,60-52.7,96.9-69.4
		c28.4-12.9,58-21.8,88.8-26.9c15.2-2.5,30.4-3.9,45.8-4.4c13.9-0.5,27.8,0,41.7,1.1c18,1.5,35.9,3.8,53.7,7
		c30.8,5.6,60.7,14.2,89,27.7c49.5,23.5,87.7,59.1,114.6,106.9c15.3,27.2,26.4,56.1,34.4,86.2c5.1,19.2,8.7,38.7,10.8,58.4
		c2.6,24.1,3.2,48.2,2,72.3c-0.6,11.7-1.4,23.3-3.2,34.9c-2.2,13.8-5.4,27.3-11.3,40c-7.7,17-19.5,30.3-35.7,39.5
		c-2.9,1.7-5.8,3.4-8.6,5.3c-5.1,3.3-8.7,7.9-11,13.6c-3.4,8.4-5.1,17.2-5.3,26.2c-0.1,5.8,0.2,11.5,0.4,17.3
		c0.5,21.2-0.8,42.2-5.3,63c-2.7,12.6-6.8,24.6-13,36c-10.1,18.5-24.8,32.4-42.9,42.8c-13.1,7.6-27.2,12.7-41.8,16.4
		c-14.4,3.7-29.1,6-43.9,7.8C418.5,705.6,392.8,706.5,367,705.8z M362.3,680.1c26.6,0.5,49.1-0.3,71.6-2.6c13.4-1.4,26.7-3.2,39.8-6
		c14-3,27.5-7.4,40.2-13.9c19.1-9.8,32.8-24.7,41-44.6c3.2-7.7,5.3-15.7,6.8-23.9c3.5-19.1,4.4-38.4,3.5-57.8
		c-0.3-7.2-0.4-14.4,0.3-21.6c1.1-11.6,4.2-22.6,9.8-32.9c5.1-9.4,12.2-16.8,22-21.4c0.9-0.4,1.7-0.9,2.5-1.4
		c11.1-6,19.7-14.6,25.8-25.7c5.1-9.2,8-19.1,9.9-29.4c4.1-22.6,5.8-45.3,5.4-68.3c-0.3-13.3-1.1-26.5-2.6-39.7
		c-2.2-18.6-5.5-37-10.4-55.1c-6.6-25-15.4-49.1-27.2-72.1c-17-33-40.4-60.6-70.7-82.1c-19.8-14.1-41.4-24.9-64.2-33
		c-22.5-8-45.6-13.8-69.2-17.4c-15.8-2.5-31.7-4.1-47.7-4.6c-9.1-0.3-18.2-0.3-27.3-0.2c-17.8,0-35.5,1.9-52.9,5.3
		c-30.8,6.1-60.2,16.2-88,30.7c-36.9,19.2-68,45.4-92.8,78.8c-15.7,21.2-28.2,44.2-38.3,68.5c-12.7,30.5-21.2,62-23,95.1
		c-0.9,16.4,0,32.6,2.7,48.8c4.5,27.1,14.2,52.4,28.1,76.1c7.2,12.3,16.2,23,26.8,32.4c10.9,9.6,22.7,18.3,34.4,26.8
		c8.7,6.3,17.4,12.6,25.9,19c9.6,7.2,16.2,16.7,20.1,28.1c0.6,1.8,1.3,3.6,1.7,5.5c1.9,8.6,3.9,17.1,5.7,25.7
		c4.2,20.2,11.2,39.3,20.6,57.6c5.2,10,12.4,18.2,21.5,24.8c5.3,3.9,11,7.1,16.9,10c18.3,8.9,37.7,13.9,57.8,16.8
		c16.8,2.4,33.7,3.3,50.7,3.8C348.4,680.4,357.3,680.1,362.3,680.1z"/>
	<path d="M288.9,623.8c-6.6-0.1-13.1-0.5-19.5-1.9c-7.5-1.7-13.4-5.7-18-11.9c-6.1-8.2-9.3-17.5-10.1-27.6
		c-0.9-11.2,2.5-21.5,8.7-30.8c1.9-2.9,4.6-4.9,7.6-6.4c9.1-4.6,18.4-5,27.9-1.7c5.5,1.9,10.6,4.5,15.2,8c5.1,3.9,10,8,14.9,12
		c8.9,11,30.2,8.4,38.4-6.5c1.7-3.1,2.7-6.5,4-9.7c0.6-1.5,0.9-3.1,1.5-4.5c1.5-3.2,4-4.8,7.6-4.7c4.4,0.1,7.1,2.1,8.3,6.5
		c0.4,1.7,0.7,3.5,0.9,5.2c1.9,13.6,11.9,22.6,25.5,24c2.7,0.3,5.5,0.2,8.1-0.2c8.7-1.3,15.1-6,18.9-13.9c1.4-3,2.4-6.2,3.6-9.4
		c0.7-1.8,1.2-3.7,2-5.4c2.4-5.3,10.8-6.3,14.2-0.7c1.1,1.8,1.9,3.7,2.8,5.5c2.3,4.6,4.9,9,8.6,12.7c6.4,6.3,14.5,7.5,22.5,3.4
		c3.3-1.7,6.1-4.1,8.4-7c1.2-1.5,2.2-3.1,3.3-4.7c3.6-5.4,8.1-9.9,13.6-13.3c6-3.6,12.5-5.7,19.6-5.3c1.9,0.1,3.8,0.5,5.7,0.8
		c6.2,1.1,9.9,5,11.8,10.7c0.7,1.9,1.1,4.1,1,6.1c-0.6,11.5-2,23-6.5,33.7c-1.6,3.8-3.6,7.5-5.8,11c-2.8,4.4-6.7,7.7-11.5,9.9
		c-6.5,2.9-12.5,1.9-18-2.4c-1.3-1-2.3-2.2-3.5-3.3c-7.7-8-20.2-9.2-29.3-2.7c-3.4,2.5-6.1,5.6-8.4,9.1c-0.9,1.5-1.7,3.1-2.7,4.6
		c-0.9,1.3-1.8,2.7-2.9,3.8c-2.8,2.6-6,2.9-9.2,0.8c-1.4-1-2.7-2.3-3.8-3.6c-1.2-1.3-2.1-2.8-3.2-4.2c-4.8-5.9-10.6-10.1-18-12
		c-8.2-2.1-15.9-1-22.8,4c-4.7,3.4-8.6,7.6-12.2,12.1c-1.5,1.9-3,3.8-4.7,5.5c-4.7,4.6-8.4,4.3-12.5-0.8c-1-1.2-1.8-2.6-2.7-4
		c-1.2-1.7-2.4-3.4-3.6-5.1c-5-7.1-12.2-10-20.6-10.6c-5.5-0.4-10.9,0.2-16.1,2.1c-6.9,2.4-12.4,6.5-16,13c-0.8,1.4-1.6,2.8-2.7,4
		c-3,3.6-6.8,5.8-11.6,6C294.9,623.9,291.9,623.8,288.9,623.8z"/>
	<path d="M161.9,373.2c0.3-24.3,5.8-45,15.3-64.7c4.3-8.9,9.3-17.5,15-25.6c14.9-21.2,32.3-40,52.7-56.1
		c11.2-8.8,23.4-16.2,36.9-21.1c11.3-4.1,22.8-6.2,34.8-5.4c13.2,1,23.3,7.2,30.1,18.7c3.1,5.2,4.5,10.9,4.7,16.9
		c0.1,6.2-0.3,12.5-0.9,18.7c-0.7,7.2-4,12.7-10,16.7c-1.9,1.2-3.8,2.3-5.8,3.4c-0.7,0.4-1.4,0.7-2.2,1c-6.9,2.6-12.3-0.8-12.9-8.1
		c-0.2-2.7,0.1-5.4,0.6-8.1c1.2-6.4,2.6-12.8,3.8-19.3c0.6-3.3,0.6-6.7-0.3-10c-1.4-5.6-4.4-8.4-10.2-9.2c-3.9-0.5-7.7,0.2-11.4,1
		c-6.8,1.5-13.1,4.2-19.1,7.6c-11.1,6.1-21.3,13.6-30.8,22c-23.8,21.2-41.7,46.7-54,76c-4.7,11.1-7.6,22.7-8.7,34.7
		c-0.7,7.4-0.3,14.7,1.6,21.9c4.6,17.5,17.6,28.8,35.4,31.4c8.7,1.3,17.2,0.4,25.7-1.6c17.4-4.2,33.6-11.3,48.3-21.6
		c3.9-2.7,8-5.3,12-7.9c1.3-0.9,2.8-1.6,4.3-2.2c3.3-1.2,6,0.3,7,3.7c0.8,2.8,0.4,5.5-1.1,7.8c-1.4,2.3-3,4.6-4.8,6.6
		c-6.5,7.2-13.9,13.2-22,18.4c-15.9,10.3-33.2,17.1-52,20.1c-23.9,3.8-45-2.3-63.2-18.3c-9.6-8.4-15.1-19.3-17.5-31.7
		C162.1,383,161.8,376.9,161.9,373.2z"/>
	<path d="M545.7,391.3c-2.1,1-3.4,2.2-4.7,3.2c-10.1,7.6-20.7,14.4-32.1,20c-9.2,4.5-18.8,8.1-28.9,9.9c-9.8,1.8-19.7,2.4-29.5-0.2
		c-16.7-4.5-26.3-15.6-29.7-32.3c-1.6-7.8-1.3-15.6-0.6-23.4c2.1-21.8,9.9-41.6,22.3-59.6c14.1-20.5,31.5-37.8,52.3-51.6
		c12.2-8.1,25.4-14.1,39.9-17.1c10.2-2.1,20.5-3.2,31-1.6c3.5,0.6,6.9,1.3,10.1,3c2.2,1.2,4.5,2.5,6.4,4.2c4,3.4,5.4,7.9,4.5,13
		c-1.2,6.5-4.2,12.1-8.6,16.9c-1.1,1.1-2.5,2-3.9,2.7c-2.3,1.1-4.3,0.6-5.9-1.5c-0.8-1-1.3-2.2-1.9-3.3c-1-1.8-1.9-3.7-2.9-5.5
		c-2.9-5.1-7.5-7.7-13.3-8.1c-6.5-0.5-12.8,0.4-18.9,2.4c-5.7,1.8-11.1,4.1-16.2,7.1c-27.3,16.2-48.8,38-63.2,66.6
		c-5.8,11.5-9.4,23.7-10.4,36.7c-0.4,5.8-0.2,11.5,1.4,17.1c2.6,9.3,8.8,14.5,18.2,16.1c7.6,1.3,15,0.1,22.3-1.6
		c9.4-2.3,18.2-6,26.7-10.5c8.6-4.6,17-9.7,24.7-15.6c3.7-2.8,7.2-5.9,10.5-9.1c3.7-3.5,6.1-7.7,7.7-12.6c1.9-6.1,3.3-12.4,4.2-18.7
		c0.2-1.4,0.5-2.8,0.8-4.2c0.7-3.3,2.8-5.4,5.9-6.4c4.7-1.6,9.5-1.5,14.1,0.1c3.8,1.3,5.6,4.3,4.7,8.3c-0.7,3.3-1.9,6.4-3.1,9.6
		c-1.9,5.3-4.1,10.4-6,15.7c-3.7,10.6-5.9,21.6-7.8,32.6c-1.1,6.3-2,12.6-2.8,19c-1,7.9-0.3,15.6,1.2,23.4c0.4,2.2,0.6,4.4,0.6,6.7
		c0,1.2-0.3,2.6-0.7,3.7c-2.8,7.4-9.5,10.2-16.7,6.7c-2-1-3.8-2.3-5.5-3.8c-3.1-2.7-4.4-6.2-3.7-10.4c1.6-9.8,3.2-19.6,4.8-29.3
		c0.7-4.3,1.5-8.5,2.2-12.8C545.5,395,545.5,393.4,545.7,391.3z"/>
	<path d="M397.3,492.8c-5.6-0.5-12.2-0.9-18.7-1.6c-9.8-1.1-16.1-7.1-20.7-15.3c-2.2-3.9-2.2-8.2-0.9-12.6c1.1-3.6,2.8-6.8,5.4-9.5
		c6.8-7,14-13.6,22.3-18.8c3.8-2.4,7.8-4.4,12.2-5.4c5.8-1.4,11.1-0.3,16,2.9c3.1,2,5.9,4.5,8.1,7.4c3.4,4.4,6.8,8.9,10,13.4
		c1.9,2.7,3.7,5.6,5.4,8.5c3.8,6.4,4.4,15.1-3.5,22c-5.6,4.9-12.1,7.6-19.5,8.2C408.4,492.3,403.3,492.5,397.3,492.8z"/>
</g>
</svg>
